<svg xmlns="http://www.w3.org/2000/svg" x="990" y="549.2093" width="190" height="78.375" viewBox="20 67 160 66" preserveAspectRatio="none"><g transform="matrix(1 0 0 1 0 0)"><g><path d="M59 67v66H48V67h11z" data-color="1" fill="#EDEDED"></path><path d="M140.8 94.5v11h-9.5v-11h9.5z" data-color="1" fill="#EDEDED"></path><path d="M152 67v66h-11V67h11z" data-color="1" fill="#EDEDED"></path><path d="M166 72.5v55h-11v-55h11z" data-color="1" fill="#EDEDED"></path><path d="M45 72.5v55H34v-55h11z" data-color="1" fill="#EDEDED"></path><path d="M31 89.8v20.4H20V89.8h11z" data-color="2" fill="#F35F40"></path><path d="M180 89.8v20.4h-11V89.8h11z" data-color="2" fill="#F35F40"></path><path d="M110.2 88.6h-7.9l-12.6 22.8h7.9l12.6-22.8z" data-color="2" fill="#F35F40"></path><path d="M78.9 111.4h7.9l12.6-22.8h-7.9l-12.6 22.8z" data-color="2" fill="#F35F40"></path><path d="M111.3 111.4h7.9l12.2-22.1v-.7h-7.5l-12.6 22.8z" data-color="2" fill="#F35F40"></path><path d="M77.8 88.6h-9.5v17.1l9.5-17.1z" data-color="2" fill="#F35F40"></path><path d="M121 88.6h-7.9l-12.6 22.8h7.9L121 88.6z" data-color="2" fill="#F35F40"></path><path d="M122.1 111.4h9.3V94.6l-9.3 16.8z" data-color="2" fill="#F35F40"></path><path d="M88.6 88.6h-7.9L68.3 111v.3H76l12.6-22.7z" data-color="2" fill="#F35F40"></path><path d="M68.4 94.5v11h-9.5v-11h9.5z" data-color="1" fill="#EDEDED"></path></g></g></svg>