<svg xmlns="http://www.w3.org/2000/svg" x="872.7672" y="637.0136" width="424.4656" height="40.777" viewBox="0.84 -28.56 303.12 29.12" preserveAspectRatio="none"><g transform="matrix(1 0 0 1 0 0)" class="companyName10202d56-eacd-4798-aa9c-f610f403b907" fill="#EDEDED"><path id="id-10202d56-eacd-4798-aa9c-f610f403b907D6z1nYkh10" d="M12.64 0.56Q9.24 0.56 6.04-0.28Q2.84-1.12 0.84-2.52L0.84-2.52L3.44-8.36Q5.32-7.12 7.80-6.36Q10.28-5.60 12.68-5.60L12.68-5.60Q17.24-5.60 17.24-7.88L17.24-7.88Q17.24-9.08 15.94-9.66Q14.64-10.24 11.76-10.88L11.76-10.88Q8.60-11.56 6.48-12.34Q4.36-13.12 2.84-14.84Q1.32-16.56 1.32-19.48L1.32-19.48Q1.32-22.04 2.72-24.10Q4.12-26.16 6.90-27.36Q9.68-28.56 13.72-28.56L13.72-28.56Q16.48-28.56 19.16-27.94Q21.84-27.32 23.88-26.12L23.88-26.12L21.44-20.24Q17.44-22.40 13.68-22.40L13.68-22.40Q11.32-22.40 10.24-21.70Q9.16-21 9.16-19.88L9.16-19.88Q9.16-18.76 10.44-18.20Q11.72-17.64 14.56-17.04L14.56-17.04Q17.76-16.36 19.86-15.58Q21.96-14.80 23.50-13.10Q25.04-11.40 25.04-8.48L25.04-8.48Q25.04-5.96 23.64-3.92Q22.24-1.88 19.44-0.66Q16.64 0.56 12.64 0.56L12.64 0.56Z M44.28-28Q48.08-28 50.88-26.74Q53.68-25.48 55.20-23.14Q56.72-20.80 56.72-17.64L56.72-17.64Q56.72-14.48 55.20-12.16Q53.68-9.84 50.88-8.58Q48.08-7.32 44.28-7.32L44.28-7.32L39.40-7.32L39.40 0L31.48 0L31.48-28L44.28-28ZM43.80-13.56Q46.24-13.56 47.48-14.62Q48.72-15.68 48.72-17.64L48.72-17.64Q48.72-19.60 47.48-20.68Q46.24-21.76 43.80-21.76L43.80-21.76L39.40-21.76L39.40-13.56L43.80-13.56Z M77.88 0.56Q73.44 0.56 69.90-1.32Q66.36-3.20 64.34-6.52Q62.32-9.84 62.32-14L62.32-14Q62.32-18.16 64.34-21.48Q66.36-24.80 69.90-26.68Q73.44-28.56 77.88-28.56L77.88-28.56Q82.32-28.56 85.86-26.68Q89.40-24.80 91.42-21.48Q93.44-18.16 93.44-14L93.44-14Q93.44-9.84 91.42-6.52Q89.40-3.20 85.86-1.32Q82.32 0.56 77.88 0.56L77.88 0.56ZM77.88-6Q80-6 81.72-7Q83.44-8 84.44-9.82Q85.44-11.64 85.44-14L85.44-14Q85.44-16.36 84.44-18.18Q83.44-20 81.72-21Q80-22 77.88-22L77.88-22Q75.76-22 74.04-21Q72.32-20 71.32-18.18Q70.32-16.36 70.32-14L70.32-14Q70.32-11.64 71.32-9.82Q72.32-8 74.04-7Q75.76-6 77.88-6L77.88-6Z M117.72 0L112.64-7.44L108.32-7.44L108.32 0L100.40 0L100.40-28L113.20-28Q117-28 119.80-26.74Q122.60-25.48 124.12-23.14Q125.64-20.80 125.64-17.64L125.64-17.64Q125.64-14.60 124.22-12.34Q122.80-10.08 120.16-8.80L120.16-8.80L126.20 0L117.72 0ZM117.64-17.64Q117.64-19.60 116.40-20.68Q115.16-21.76 112.72-21.76L112.72-21.76L108.32-21.76L108.32-13.56L112.72-13.56Q115.16-13.56 116.40-14.62Q117.64-15.68 117.64-17.64L117.64-17.64Z M156.96-24.96L154.32-19.20Q150.80-21.16 147.16-21.80L147.16-21.80L147.16 0L139.24 0L139.24-21.80Q135.52-21.16 132.08-19.20L132.08-19.20L129.44-24.96Q132.36-26.72 135.90-27.64Q139.44-28.56 143.20-28.56L143.20-28.56Q146.96-28.56 150.50-27.64Q154.04-26.72 156.96-24.96L156.96-24.96Z M200.60-24.96L197.96-19.20Q194.44-21.16 190.80-21.80L190.80-21.80L190.80 0L182.88 0L182.88-21.80Q179.16-21.16 175.72-19.20L175.72-19.20L173.08-24.96Q176.00-26.72 179.54-27.64Q183.08-28.56 186.84-28.56L186.84-28.56Q190.60-28.56 194.14-27.64Q197.68-26.72 200.60-24.96L200.60-24.96Z M221.32-21.88L216.80-21.88L216.80-6.12L221.32-6.12L221.32 0L204.32 0L204.32-6.12L208.88-6.12L208.88-21.88L204.32-21.88L204.32-28L221.32-28L221.32-21.88Z M261.16-28.56Q266.12-28.56 268.90-25.62Q271.68-22.68 271.68-17.12L271.68-17.12L271.68 0L263.76 0L263.76-16.88Q263.76-19.40 262.44-20.70Q261.12-22 258.92-22L258.92-22Q256.56-22 255.18-20.62Q253.80-19.24 253.80-16.48L253.80-16.48L253.80 0L245.88 0L245.88-16.88Q245.88-19.40 244.66-20.70Q243.44-22 241.32-22L241.32-22Q239.04-22 237.68-20.62Q236.32-19.24 236.32-16.48L236.32-16.48L236.32 0L228.40 0L228.40-28L236.08-28L236.08-24.88Q237.36-26.68 239.38-27.62Q241.40-28.56 244.08-28.56L244.08-28.56Q246.84-28.56 248.90-27.56Q250.96-26.56 252.24-24.64L252.24-24.64Q253.68-26.56 256.00-27.56Q258.32-28.56 261.16-28.56L261.16-28.56Z M301.56-7.96L303.96-2.12Q301.80-0.88 298.72-0.16Q295.64 0.56 292.32 0.56L292.32 0.56Q287.84 0.56 284.70-0.52Q281.56-1.60 279.98-3.52Q278.40-5.44 278.40-7.96L278.40-7.96Q278.40-10.16 279.60-11.84Q280.80-13.52 282.92-14.44L282.92-14.44Q281.28-15.28 280.42-16.78Q279.56-18.28 279.56-20.08L279.56-20.08Q279.56-22.40 281.02-24.32Q282.48-26.24 285.48-27.40Q288.48-28.56 292.88-28.56L292.88-28.56Q295.64-28.56 298.32-28.04Q301.00-27.52 303.04-26.64L303.04-26.64L300.88-20.72Q297.16-22.36 293.20-22.36L293.20-22.36Q290.36-22.36 288.96-21.62Q287.56-20.88 287.56-19.56L287.56-19.56Q287.56-17.16 291.04-17.16L291.04-17.16L298.96-17.16L298.96-11.12L290.52-11.12Q288.48-11.12 287.44-10.46Q286.40-9.80 286.40-8.52L286.40-8.52Q286.40-7.16 287.92-6.40Q289.44-5.64 292.64-5.64L292.64-5.64Q294.92-5.64 297.34-6.26Q299.76-6.88 301.56-7.96L301.56-7.96Z"></path></g></svg>